<svg xmlns="http://www.w3.org/2000/svg" viewBox="0 0 400 400" width="400" height="400" role="img"><defs><linearGradient id="r4kfhy4mcrc9ced6" x1="0" y1="0" x2="1" y2="1"><stop offset="0" stop-color="#d8dce1"/><stop offset="0.3" stop-color="#cdd2d9"/><stop offset="0.5" stop-color="#d5d9df"/><stop offset="0.8" stop-color="#bec3cb"/><stop offset="1" stop-color="#a3a8b0"/></linearGradient><linearGradient id="r4kfhy4tb" x1="0" y1="0" x2="0" y2="1"><stop offset="0" stop-color="#ffffff"/><stop offset="0.4" stop-color="#eef1f4"/><stop offset="1" stop-color="#b9c1ca"/></linearGradient><linearGradient id="r4kfhy4mstb9c0c9" x1="0" y1="0" x2="1" y2="1"><stop offset="0" stop-color="#cdd2d8"/><stop offset="0.3" stop-color="#bfc5cd"/><stop offset="0.5" stop-color="#c8ced5"/><stop offset="0.8" stop-color="#afb5be"/><stop offset="1" stop-color="#969da5"/></linearGradient><linearGradient id="r4kfhy4snce3e8ee12" x1="0" y1="0" x2="1" y2="1"><stop offset="0" stop-color="#e6eaf0"/><stop offset="0.6" stop-color="#e3e8ee"/><stop offset="1" stop-color="#c9ced4"/></linearGradient><radialGradient id="r4kfhy4fl20" cx="0.5" cy="0.5" r="0.5"><stop offset="0" stop-color="#0f172a" stop-opacity="0.2"/><stop offset="0.6" stop-color="#0f172a" stop-opacity="0.1"/><stop offset="1" stop-color="#0f172a" stop-opacity="0"/></radialGradient></defs><rect width="400" height="400" fill="#ffffff"/><ellipse cx="205" cy="251" rx="120.1" ry="7.2" fill="url(#r4kfhy4fl20)"/><g transform="rotate(-18 200 200)"><path d="M84 162H238Q262 170 272 186V214Q262 230 238 238H84Z" fill="#0f172a" fill-opacity="0.1" transform="translate(5 7)"/><path d="M84 162H238Q262 170 272 186V214Q262 230 238 238H84Z" fill="#0f172a" fill-opacity="0.1" transform="translate(3 4.2)"/><path d="M84 162H238Q262 170 272 186V214Q262 230 238 238H84Z" fill="#0f172a" fill-opacity="0.1" transform="translate(1.5 2.1)"/><path d="M84 162H238Q262 170 272 186V214Q262 230 238 238H84Z" fill="#abaeb3" transform="translate(2.8 5)"/><path d="M60 166H84V234H60Z" fill="url(#r4kfhy4mcrc9ced6)" stroke="#7d8791" stroke-width="0.8"/><line x1="62" y1="172" x2="82" y2="172" stroke="#8d96a1" stroke-width="0.8"/><line x1="62" y1="178" x2="82" y2="178" stroke="#8d96a1" stroke-width="0.8"/><line x1="62" y1="184" x2="82" y2="184" stroke="#8d96a1" stroke-width="0.8"/><line x1="62" y1="190" x2="82" y2="190" stroke="#8d96a1" stroke-width="0.8"/><line x1="62" y1="196" x2="82" y2="196" stroke="#8d96a1" stroke-width="0.8"/><line x1="62" y1="202" x2="82" y2="202" stroke="#8d96a1" stroke-width="0.8"/><line x1="62" y1="208" x2="82" y2="208" stroke="#8d96a1" stroke-width="0.8"/><line x1="62" y1="214" x2="82" y2="214" stroke="#8d96a1" stroke-width="0.8"/><line x1="62" y1="220" x2="82" y2="220" stroke="#8d96a1" stroke-width="0.8"/><line x1="62" y1="226" x2="82" y2="226" stroke="#8d96a1" stroke-width="0.8"/><path d="M84 162H238Q262 170 272 186V214Q262 230 238 238H84Z" fill="url(#r4kfhy4tb)" stroke="#8d96a1" stroke-width="1.3"/><rect x="110" y="162" width="34" height="76" fill="#6f8fb5" fill-opacity="0.9"/><path d="M273 188H289C290.7 188 292 189.3 292 191V209C292 210.7 290.7 212 289 212H273C271.3 212 270 210.7 270 209V191C270 189.3 271.3 188 273 188Z" fill="url(#r4kfhy4mstb9c0c9)" stroke="#6f7883" stroke-width="0.8"/><path d="M292 186H318L352 198V202L318 214H292Z" fill="url(#r4kfhy4snce3e8ee12)" stroke="#969ca5" stroke-width="1.3" stroke-linejoin="round"/></g><text x="392" y="392" text-anchor="end" font-family="system-ui,-apple-system,'Segoe UI',Roboto,Arial,sans-serif" font-size="10" fill="#9aa1ab">Ilustración</text></svg>