<svg xmlns="http://www.w3.org/2000/svg" viewBox="0 0 400 400" width="400" height="400" role="img"><defs><radialGradient id="rlq6w5jfl20" cx="0.5" cy="0.5" r="0.5"><stop offset="0" stop-color="#0f172a" stop-opacity="0.2"/><stop offset="0.6" stop-color="#0f172a" stop-opacity="0.1"/><stop offset="1" stop-color="#0f172a" stop-opacity="0"/></radialGradient><linearGradient id="rlq6w5jsbkd0e7f612" x1="0" y1="0" x2="1" y2="1"><stop offset="0" stop-color="#d5eaf7"/><stop offset="0.6" stop-color="#d0e7f6"/><stop offset="1" stop-color="#b8cddb"/></linearGradient><clipPath id="rlq6w5jck"><path d="M149.5 34H250.5C270.7 34 276.2 39.6 276.2 59.8V322.2C276.2 342.4 270.7 348 250.5 348H149.5C129.3 348 123.8 342.4 123.8 322.2V59.8C123.8 39.6 129.3 34 149.5 34Z"/></clipPath><linearGradient id="rlq6w5jshn" x1="0" y1="0" x2="1" y2="0"><stop offset="0" stop-color="#ffffff" stop-opacity="0"/><stop offset="0.3" stop-color="#ffffff" stop-opacity="0.1"/><stop offset="0.5" stop-color="#ffffff" stop-opacity="0.3"/><stop offset="0.6" stop-color="#ffffff" stop-opacity="0.2"/><stop offset="1" stop-color="#ffffff" stop-opacity="0"/></linearGradient><linearGradient id="rlq6w5jrim45" x1="0" y1="0" x2="1" y2="1"><stop offset="0" stop-color="#ffffff" stop-opacity="0.5"/><stop offset="0.5" stop-color="#ffffff" stop-opacity="0.1"/><stop offset="1" stop-color="#ffffff" stop-opacity="0"/></linearGradient><linearGradient id="rlq6w5jsil16191e12" x1="0" y1="0" x2="1" y2="1"><stop offset="0" stop-color="#2f3236"/><stop offset="0.6" stop-color="#16191e"/><stop offset="1" stop-color="#15181d"/></linearGradient><linearGradient id="rlq6w5jrim50" x1="0" y1="0" x2="1" y2="1"><stop offset="0" stop-color="#ffffff" stop-opacity="0.5"/><stop offset="0.5" stop-color="#ffffff" stop-opacity="0.1"/><stop offset="1" stop-color="#ffffff" stop-opacity="0"/></linearGradient><linearGradient id="rlq6w5jmlrb7bdc5" x1="0" y1="0" x2="1" y2="1"><stop offset="0" stop-color="#cbcfd5"/><stop offset="0.3" stop-color="#bdc2ca"/><stop offset="0.5" stop-color="#c7ccd2"/><stop offset="0.8" stop-color="#adb3bb"/><stop offset="1" stop-color="#959aa2"/></linearGradient><radialGradient id="rlq6w5jlg" cx="0.4" cy="0.4" r="0.6"><stop offset="0" stop-color="#2b3f5c"/><stop offset="0.5" stop-color="#0e1624"/><stop offset="1" stop-color="#03050a"/></radialGradient><radialGradient id="rlq6w5jlc" cx="0.6" cy="0.6" r="0.5"><stop offset="0" stop-color="#7a5cc9" stop-opacity="0.6"/><stop offset="0.6" stop-color="#2a6d8f" stop-opacity="0.3"/><stop offset="1" stop-color="#0a0f18" stop-opacity="0"/></radialGradient><g id="rlq6w5jlensb7bdc5"><circle r="50" fill="url(#rlq6w5jmlrb7bdc5)" stroke="#55595e" stroke-width="2"/><circle r="41" fill="#0b0e13"/><circle r="36" fill="url(#rlq6w5jlg)"/><circle r="24" fill="url(#rlq6w5jlc)"/><circle r="13" fill="#05080d"/><ellipse cx="-13" cy="-14" rx="8" ry="5.5" fill="#ffffff" fill-opacity="0.6" transform="rotate(-35 -13 -14)"/><circle cx="12" cy="13" r="3" fill="#ffffff" fill-opacity="0.3"/></g><linearGradient id="rlq6w5jmfrb7bdc5" x1="0" y1="0" x2="1" y2="1"><stop offset="0" stop-color="#cbcfd5"/><stop offset="0.3" stop-color="#bdc2ca"/><stop offset="0.5" stop-color="#c7ccd2"/><stop offset="0.8" stop-color="#adb3bb"/><stop offset="1" stop-color="#959aa2"/></linearGradient><radialGradient id="rlq6w5jfl" cx="0.4" cy="0.4" r="0.7"><stop offset="0" stop-color="#fffdf2"/><stop offset="0.7" stop-color="#efe6c8"/><stop offset="1" stop-color="#cfc3a0"/></radialGradient></defs><rect width="400" height="400" fill="#ffffff"/><ellipse cx="200" cy="355" rx="70.1" ry="8" fill="url(#rlq6w5jfl20)"/><path d="M149.5 34H250.5C270.7 34 276.2 39.6 276.2 59.8V322.2C276.2 342.4 270.7 348 250.5 348H149.5C129.3 348 123.8 342.4 123.8 322.2V59.8C123.8 39.6 129.3 34 149.5 34Z" fill="#0f172a" fill-opacity="0.1" transform="translate(6 8)"/><path d="M149.5 34H250.5C270.7 34 276.2 39.6 276.2 59.8V322.2C276.2 342.4 270.7 348 250.5 348H149.5C129.3 348 123.8 342.4 123.8 322.2V59.8C123.8 39.6 129.3 34 149.5 34Z" fill="#0f172a" fill-opacity="0.1" transform="translate(3.6 4.8)"/><path d="M149.5 34H250.5C270.7 34 276.2 39.6 276.2 59.8V322.2C276.2 342.4 270.7 348 250.5 348H149.5C129.3 348 123.8 342.4 123.8 322.2V59.8C123.8 39.6 129.3 34 149.5 34Z" fill="#0f172a" fill-opacity="0.1" transform="translate(1.8 2.4)"/><path d="M149.5 34H250.5C270.7 34 276.2 39.6 276.2 59.8V322.2C276.2 342.4 270.7 348 250.5 348H149.5C129.3 348 123.8 342.4 123.8 322.2V59.8C123.8 39.6 129.3 34 149.5 34Z" fill="#99abb8" transform="translate(1.7 3)"/><path d="M149.5 34H250.5C270.7 34 276.2 39.6 276.2 59.8V322.2C276.2 342.4 270.7 348 250.5 348H149.5C129.3 348 123.8 342.4 123.8 322.2V59.8C123.8 39.6 129.3 34 149.5 34Z" fill="url(#rlq6w5jsbkd0e7f612)" stroke="#8b9caa" stroke-width="1.3"/><g clip-path="url(#rlq6w5jck)"><rect x="168.1" y="-291.6" width="94.2" height="839.7" fill="url(#rlq6w5jshn)" opacity="0.2" transform="rotate(40 215.2 128.2)"/></g><path d="M149.3 34.8H250.7C270.1 34.8 275.4 40.1 275.4 59.5V322.5C275.4 341.9 270.1 347.2 250.7 347.2H149.3C129.9 347.2 124.6 341.9 124.6 322.5V59.5C124.6 40.1 129.9 34.8 149.3 34.8Z" fill="none" stroke="url(#rlq6w5jrim45)" stroke-width="1"/><path d="M149.5 45.4H166.7C177.9 45.4 180.9 48.5 180.9 59.7V63.2C180.9 74.4 177.9 77.5 166.7 77.5H149.5C138.3 77.5 135.2 74.4 135.2 63.2V59.7C135.2 48.5 138.3 45.4 149.5 45.4Z" fill="#13161c" transform="translate(1.3 2.4)"/><path d="M149.5 45.4H166.7C177.9 45.4 180.9 48.5 180.9 59.7V63.2C180.9 74.4 177.9 77.5 166.7 77.5H149.5C138.3 77.5 135.2 74.4 135.2 63.2V59.7C135.2 48.5 138.3 45.4 149.5 45.4Z" fill="url(#rlq6w5jsil16191e12)" stroke="#1d2025" stroke-width="1.3"/><path d="M149.5 45.4H166.7C177.9 45.4 180.9 48.5 180.9 59.7V63.2C180.9 74.4 177.9 77.5 166.7 77.5H149.5C138.3 77.5 135.2 74.4 135.2 63.2V59.7C135.2 48.5 138.3 45.4 149.5 45.4Z" fill="none" stroke="url(#rlq6w5jrim50)" stroke-width="1"/><circle cx="152.2" cy="62.9" r="12.2" fill="#000000" fill-opacity="0.3"/><use href="#rlq6w5jlensb7bdc5" transform="translate(151.2 61.4) scale(0.244)"/><circle cx="173.3" cy="61.4" r="4.3" fill="url(#rlq6w5jmfrb7bdc5)" stroke="#55595e" stroke-width="0.6"/><circle cx="173.3" cy="61.4" r="3.2" fill="url(#rlq6w5jfl)"/><text x="392" y="392" text-anchor="end" font-family="system-ui,-apple-system,'Segoe UI',Roboto,Arial,sans-serif" font-size="10" fill="#9aa1ab">Ilustración</text></svg>