<svg xmlns="http://www.w3.org/2000/svg" viewBox="0 0 400 400" width="400" height="400" role="img"><defs><radialGradient id="r1esrqljfl20" cx="0.5" cy="0.5" r="0.5"><stop offset="0" stop-color="#0f172a" stop-opacity="0.2"/><stop offset="0.6" stop-color="#0f172a" stop-opacity="0.1"/><stop offset="1" stop-color="#0f172a" stop-opacity="0"/></radialGradient><linearGradient id="r1esrqljsbk25252512" x1="0" y1="0" x2="1" y2="1"><stop offset="0" stop-color="#3d3d3d"/><stop offset="0.6" stop-color="#252525"/><stop offset="1" stop-color="#222223"/></linearGradient><clipPath id="r1esrqljck"><path d="M150.9 34H249.1C268.8 34 274.2 39.4 274.2 59.1V322.9C274.2 342.6 268.8 348 249.1 348H150.9C131.2 348 125.8 342.6 125.8 322.9V59.1C125.8 39.4 131.2 34 150.9 34Z"/></clipPath><linearGradient id="r1esrqljshn" x1="0" y1="0" x2="1" y2="0"><stop offset="0" stop-color="#ffffff" stop-opacity="0"/><stop offset="0.3" stop-color="#ffffff" stop-opacity="0.1"/><stop offset="0.5" stop-color="#ffffff" stop-opacity="0.3"/><stop offset="0.6" stop-color="#ffffff" stop-opacity="0.2"/><stop offset="1" stop-color="#ffffff" stop-opacity="0"/></linearGradient><linearGradient id="r1esrqljrim45" x1="0" y1="0" x2="1" y2="1"><stop offset="0" stop-color="#ffffff" stop-opacity="0.5"/><stop offset="0.5" stop-color="#ffffff" stop-opacity="0.1"/><stop offset="1" stop-color="#ffffff" stop-opacity="0"/></linearGradient><linearGradient id="r1esrqljsil16191e12" x1="0" y1="0" x2="1" y2="1"><stop offset="0" stop-color="#2f3236"/><stop offset="0.6" stop-color="#16191e"/><stop offset="1" stop-color="#15181d"/></linearGradient><linearGradient id="r1esrqljrim50" x1="0" y1="0" x2="1" y2="1"><stop offset="0" stop-color="#ffffff" stop-opacity="0.5"/><stop offset="0.5" stop-color="#ffffff" stop-opacity="0.1"/><stop offset="1" stop-color="#ffffff" stop-opacity="0"/></linearGradient><linearGradient id="r1esrqljmlr606368" x1="0" y1="0" x2="1" y2="1"><stop offset="0" stop-color="#8d8f92"/><stop offset="0.3" stop-color="#6d6f74"/><stop offset="0.5" stop-color="#838589"/><stop offset="0.8" stop-color="#5b5e63"/><stop offset="1" stop-color="#4f5258"/></linearGradient><radialGradient id="r1esrqljlg" cx="0.4" cy="0.4" r="0.6"><stop offset="0" stop-color="#2b3f5c"/><stop offset="0.5" stop-color="#0e1624"/><stop offset="1" stop-color="#03050a"/></radialGradient><radialGradient id="r1esrqljlc" cx="0.6" cy="0.6" r="0.5"><stop offset="0" stop-color="#7a5cc9" stop-opacity="0.6"/><stop offset="0.6" stop-color="#2a6d8f" stop-opacity="0.3"/><stop offset="1" stop-color="#0a0f18" stop-opacity="0"/></radialGradient><g id="r1esrqljlens606368"><circle r="50" fill="url(#r1esrqljmlr606368)" stroke="#2e3034" stroke-width="2"/><circle r="41" fill="#0b0e13"/><circle r="36" fill="url(#r1esrqljlg)"/><circle r="24" fill="url(#r1esrqljlc)"/><circle r="13" fill="#05080d"/><ellipse cx="-13" cy="-14" rx="8" ry="5.5" fill="#ffffff" fill-opacity="0.6" transform="rotate(-35 -13 -14)"/><circle cx="12" cy="13" r="3" fill="#ffffff" fill-opacity="0.3"/></g><linearGradient id="r1esrqljmfr606368" x1="0" y1="0" x2="1" y2="1"><stop offset="0" stop-color="#8d8f92"/><stop offset="0.3" stop-color="#6d6f74"/><stop offset="0.5" stop-color="#838589"/><stop offset="0.8" stop-color="#5b5e63"/><stop offset="1" stop-color="#4f5258"/></linearGradient><radialGradient id="r1esrqljfl" cx="0.4" cy="0.4" r="0.7"><stop offset="0" stop-color="#fffdf2"/><stop offset="0.7" stop-color="#efe6c8"/><stop offset="1" stop-color="#cfc3a0"/></radialGradient></defs><rect width="400" height="400" fill="#ffffff"/><ellipse cx="200" cy="355" rx="68.3" ry="8" fill="url(#r1esrqljfl20)"/><path d="M150.9 34H249.1C268.8 34 274.2 39.4 274.2 59.1V322.9C274.2 342.6 268.8 348 249.1 348H150.9C131.2 348 125.8 342.6 125.8 322.9V59.1C125.8 39.4 131.2 34 150.9 34Z" fill="#0f172a" fill-opacity="0.1" transform="translate(6 8)"/><path d="M150.9 34H249.1C268.8 34 274.2 39.4 274.2 59.1V322.9C274.2 342.6 268.8 348 249.1 348H150.9C131.2 348 125.8 342.6 125.8 322.9V59.1C125.8 39.4 131.2 34 150.9 34Z" fill="#0f172a" fill-opacity="0.1" transform="translate(3.6 4.8)"/><path d="M150.9 34H249.1C268.8 34 274.2 39.4 274.2 59.1V322.9C274.2 342.6 268.8 348 249.1 348H150.9C131.2 348 125.8 342.6 125.8 322.9V59.1C125.8 39.4 131.2 34 150.9 34Z" fill="#0f172a" fill-opacity="0.1" transform="translate(1.8 2.4)"/><path d="M150.9 34H249.1C268.8 34 274.2 39.4 274.2 59.1V322.9C274.2 342.6 268.8 348 249.1 348H150.9C131.2 348 125.8 342.6 125.8 322.9V59.1C125.8 39.4 131.2 34 150.9 34Z" fill="#1e1f21" transform="translate(1.7 3)"/><path d="M150.9 34H249.1C268.8 34 274.2 39.4 274.2 59.1V322.9C274.2 342.6 268.8 348 249.1 348H150.9C131.2 348 125.8 342.6 125.8 322.9V59.1C125.8 39.4 131.2 34 150.9 34Z" fill="url(#r1esrqljsbk25252512)" stroke="#131516" stroke-width="1.3"/><g clip-path="url(#r1esrqljck)"><rect x="167.7" y="-288" width="94.2" height="832.4" fill="url(#r1esrqljshn)" opacity="0.3" transform="rotate(40 214.8 128.2)"/></g><path d="M150.6 34.8H249.4C268.2 34.8 273.4 40 273.4 58.8V323.2C273.4 342 268.2 347.2 249.4 347.2H150.6C131.8 347.2 126.6 342 126.6 323.2V58.8C126.6 40 131.8 34.8 150.6 34.8Z" fill="none" stroke="url(#r1esrqljrim45)" stroke-width="1"/><path d="M130.8 53.3H267.8C270.9 53.3 271.7 54.1 271.7 57.2V85.1C271.7 88.1 270.9 88.9 267.8 88.9H130.8C127.8 88.9 127 88.1 127 85.1V57.2C127 54.1 127.8 53.3 130.8 53.3Z" fill="#13161c" transform="translate(1.3 2.4)"/><path d="M130.8 53.3H267.8C270.9 53.3 271.7 54.1 271.7 57.2V85.1C271.7 88.1 270.9 88.9 267.8 88.9H130.8C127.8 88.9 127 88.1 127 85.1V57.2C127 54.1 127.8 53.3 130.8 53.3Z" fill="url(#r1esrqljsil16191e12)" stroke="#1d2025" stroke-width="1.3"/><path d="M130.8 53.3H267.8C270.9 53.3 271.7 54.1 271.7 57.2V85.1C271.7 88.1 270.9 88.9 267.8 88.9H130.8C127.8 88.9 127 88.1 127 85.1V57.2C127 54.1 127.8 53.3 130.8 53.3Z" fill="none" stroke="url(#r1esrqljrim50)" stroke-width="1"/><circle cx="152.5" cy="72.4" r="11" fill="#000000" fill-opacity="0.3"/><use href="#r1esrqljlens606368" transform="translate(151.6 71.1) scale(0.220)"/><circle cx="178.9" cy="72.4" r="11" fill="#000000" fill-opacity="0.3"/><use href="#r1esrqljlens606368" transform="translate(178 71.1) scale(0.220)"/><circle cx="242" cy="71.1" r="4.2" fill="url(#r1esrqljmfr606368)" stroke="#2e3034" stroke-width="0.6"/><circle cx="242" cy="71.1" r="3.1" fill="url(#r1esrqljfl)"/><circle cx="252.4" cy="71.1" r="1.9" fill="#0c0f14"/><circle cx="251.9" cy="70.6" r="0.7" fill="#39414c"/><text x="392" y="392" text-anchor="end" font-family="system-ui,-apple-system,'Segoe UI',Roboto,Arial,sans-serif" font-size="10" fill="#9aa1ab">Ilustración</text></svg>