<svg xmlns="http://www.w3.org/2000/svg" viewBox="0 0 400 400" width="400" height="400" role="img"><defs><radialGradient id="r1d8vmwufl20" cx="0.5" cy="0.5" r="0.5"><stop offset="0" stop-color="#0f172a" stop-opacity="0.2"/><stop offset="0.6" stop-color="#0f172a" stop-opacity="0.1"/><stop offset="1" stop-color="#0f172a" stop-opacity="0"/></radialGradient><linearGradient id="r1d8vmwusbk6b4a3612" x1="0" y1="0" x2="1" y2="1"><stop offset="0" stop-color="#7b5e4c"/><stop offset="0.6" stop-color="#6b4a36"/><stop offset="1" stop-color="#5f4332"/></linearGradient><clipPath id="r1d8vmwuck"><path d="M150.9 34H249.1C268.5 34 273.9 39.3 273.9 58.8V323.2C273.9 342.7 268.5 348 249.1 348H150.9C131.5 348 126.1 342.7 126.1 323.2V58.8C126.1 39.3 131.5 34 150.9 34Z"/></clipPath><linearGradient id="r1d8vmwushn" x1="0" y1="0" x2="1" y2="0"><stop offset="0" stop-color="#ffffff" stop-opacity="0"/><stop offset="0.3" stop-color="#ffffff" stop-opacity="0.1"/><stop offset="0.5" stop-color="#ffffff" stop-opacity="0.3"/><stop offset="0.6" stop-color="#ffffff" stop-opacity="0.2"/><stop offset="1" stop-color="#ffffff" stop-opacity="0"/></linearGradient><linearGradient id="r1d8vmwurim45" x1="0" y1="0" x2="1" y2="1"><stop offset="0" stop-color="#ffffff" stop-opacity="0.5"/><stop offset="0.5" stop-color="#ffffff" stop-opacity="0.1"/><stop offset="1" stop-color="#ffffff" stop-opacity="0"/></linearGradient><linearGradient id="r1d8vmwusil16191e12" x1="0" y1="0" x2="1" y2="1"><stop offset="0" stop-color="#2f3236"/><stop offset="0.6" stop-color="#16191e"/><stop offset="1" stop-color="#15181d"/></linearGradient><linearGradient id="r1d8vmwurim50" x1="0" y1="0" x2="1" y2="1"><stop offset="0" stop-color="#ffffff" stop-opacity="0.5"/><stop offset="0.5" stop-color="#ffffff" stop-opacity="0.1"/><stop offset="1" stop-color="#ffffff" stop-opacity="0"/></linearGradient><linearGradient id="r1d8vmwumlr837670" x1="0" y1="0" x2="1" y2="1"><stop offset="0" stop-color="#a69c98"/><stop offset="0.3" stop-color="#8d817b"/><stop offset="0.5" stop-color="#9e948f"/><stop offset="0.8" stop-color="#7c706b"/><stop offset="1" stop-color="#6b625e"/></linearGradient><radialGradient id="r1d8vmwulg" cx="0.4" cy="0.4" r="0.6"><stop offset="0" stop-color="#2b3f5c"/><stop offset="0.5" stop-color="#0e1624"/><stop offset="1" stop-color="#03050a"/></radialGradient><radialGradient id="r1d8vmwulc" cx="0.6" cy="0.6" r="0.5"><stop offset="0" stop-color="#7a5cc9" stop-opacity="0.6"/><stop offset="0.6" stop-color="#2a6d8f" stop-opacity="0.3"/><stop offset="1" stop-color="#0a0f18" stop-opacity="0"/></radialGradient><g id="r1d8vmwulens837670"><circle r="50" fill="url(#r1d8vmwumlr837670)" stroke="#3e3938" stroke-width="2"/><circle r="41" fill="#0b0e13"/><circle r="36" fill="url(#r1d8vmwulg)"/><circle r="24" fill="url(#r1d8vmwulc)"/><circle r="13" fill="#05080d"/><ellipse cx="-13" cy="-14" rx="8" ry="5.5" fill="#ffffff" fill-opacity="0.6" transform="rotate(-35 -13 -14)"/><circle cx="12" cy="13" r="3" fill="#ffffff" fill-opacity="0.3"/></g><linearGradient id="r1d8vmwumfr837670" x1="0" y1="0" x2="1" y2="1"><stop offset="0" stop-color="#a69c98"/><stop offset="0.3" stop-color="#8d817b"/><stop offset="0.5" stop-color="#9e948f"/><stop offset="0.8" stop-color="#7c706b"/><stop offset="1" stop-color="#6b625e"/></linearGradient><radialGradient id="r1d8vmwufl" cx="0.4" cy="0.4" r="0.7"><stop offset="0" stop-color="#fffdf2"/><stop offset="0.7" stop-color="#efe6c8"/><stop offset="1" stop-color="#cfc3a0"/></radialGradient></defs><rect width="400" height="400" fill="#ffffff"/><ellipse cx="200" cy="355" rx="68" ry="8" fill="url(#r1d8vmwufl20)"/><path d="M150.9 34H249.1C268.5 34 273.9 39.3 273.9 58.8V323.2C273.9 342.7 268.5 348 249.1 348H150.9C131.5 348 126.1 342.7 126.1 323.2V58.8C126.1 39.3 131.5 34 150.9 34Z" fill="#0f172a" fill-opacity="0.1" transform="translate(6 8)"/><path d="M150.9 34H249.1C268.5 34 273.9 39.3 273.9 58.8V323.2C273.9 342.7 268.5 348 249.1 348H150.9C131.5 348 126.1 342.7 126.1 323.2V58.8C126.1 39.3 131.5 34 150.9 34Z" fill="#0f172a" fill-opacity="0.1" transform="translate(3.6 4.8)"/><path d="M150.9 34H249.1C268.5 34 273.9 39.3 273.9 58.8V323.2C273.9 342.7 268.5 348 249.1 348H150.9C131.5 348 126.1 342.7 126.1 323.2V58.8C126.1 39.3 131.5 34 150.9 34Z" fill="#0f172a" fill-opacity="0.1" transform="translate(1.8 2.4)"/><path d="M150.9 34H249.1C268.5 34 273.9 39.3 273.9 58.8V323.2C273.9 342.7 268.5 348 249.1 348H150.9C131.5 348 126.1 342.7 126.1 323.2V58.8C126.1 39.3 131.5 34 150.9 34Z" fill="#503a2d" transform="translate(1.7 3)"/><path d="M150.9 34H249.1C268.5 34 273.9 39.3 273.9 58.8V323.2C273.9 342.7 268.5 348 249.1 348H150.9C131.5 348 126.1 342.7 126.1 323.2V58.8C126.1 39.3 131.5 34 150.9 34Z" fill="url(#r1d8vmwusbk6b4a3612)" stroke="#33251e" stroke-width="1.3"/><g clip-path="url(#r1d8vmwuck)"><rect x="167.7" y="-287.4" width="94.2" height="831.1" fill="url(#r1d8vmwushn)" opacity="0.3" transform="rotate(40 214.8 128.2)"/></g><path d="M150.7 34.8H249.3C268 34.8 273.1 39.9 273.1 58.5V323.5C273.1 342.1 268 347.2 249.3 347.2H150.7C132 347.2 126.9 342.1 126.9 323.5V58.5C126.9 39.9 132 34.8 150.7 34.8Z" fill="none" stroke="url(#r1d8vmwurim45)" stroke-width="1"/><path d="M149.3 45.1H168C177.4 45.1 180.1 47.7 180.1 57.2V87.6C180.1 97.1 177.4 99.7 168 99.7H149.3C139.8 99.7 137.2 97.1 137.2 87.6V57.2C137.2 47.7 139.8 45.1 149.3 45.1Z" fill="#13161c" transform="translate(1.3 2.4)"/><path d="M149.3 45.1H168C177.4 45.1 180.1 47.7 180.1 57.2V87.6C180.1 97.1 177.4 99.7 168 99.7H149.3C139.8 99.7 137.2 97.1 137.2 87.6V57.2C137.2 47.7 139.8 45.1 149.3 45.1Z" fill="url(#r1d8vmwusil16191e12)" stroke="#1d2025" stroke-width="1.3"/><path d="M149.3 45.1H168C177.4 45.1 180.1 47.7 180.1 57.2V87.6C180.1 97.1 177.4 99.7 168 99.7H149.3C139.8 99.7 137.2 97.1 137.2 87.6V57.2C137.2 47.7 139.8 45.1 149.3 45.1Z" fill="none" stroke="url(#r1d8vmwurim50)" stroke-width="1"/><circle cx="152.8" cy="61.1" r="10.3" fill="#000000" fill-opacity="0.3"/><use href="#r1d8vmwulens837670" transform="translate(152 59.9) scale(0.207)"/><circle cx="152.8" cy="86.2" r="10.3" fill="#000000" fill-opacity="0.3"/><use href="#r1d8vmwulens837670" transform="translate(152 85) scale(0.207)"/><circle cx="169" cy="56.8" r="3.7" fill="url(#r1d8vmwumfr837670)" stroke="#3e3938" stroke-width="0.6"/><circle cx="169" cy="56.8" r="2.8" fill="url(#r1d8vmwufl)"/><text x="392" y="392" text-anchor="end" font-family="system-ui,-apple-system,'Segoe UI',Roboto,Arial,sans-serif" font-size="10" fill="#9aa1ab">Ilustración</text></svg>