<svg xmlns="http://www.w3.org/2000/svg" viewBox="0 0 400 400" width="400" height="400" role="img"><defs><radialGradient id="r1vq3ww7fl20" cx="0.5" cy="0.5" r="0.5"><stop offset="0" stop-color="#0f172a" stop-opacity="0.2"/><stop offset="0.6" stop-color="#0f172a" stop-opacity="0.1"/><stop offset="1" stop-color="#0f172a" stop-opacity="0"/></radialGradient><linearGradient id="r1vq3ww7sbkd7e3dc12" x1="0" y1="0" x2="1" y2="1"><stop offset="0" stop-color="#dbe6e0"/><stop offset="0.6" stop-color="#d7e3dc"/><stop offset="1" stop-color="#bfcac4"/></linearGradient><clipPath id="r1vq3ww7ck"><path d="M150.2 34H249.8C268.9 34 274.2 39.3 274.2 58.5V323.5C274.2 342.7 268.9 348 249.8 348H150.2C131.1 348 125.8 342.7 125.8 323.5V58.5C125.8 39.3 131.1 34 150.2 34Z"/></clipPath><linearGradient id="r1vq3ww7shn" x1="0" y1="0" x2="1" y2="0"><stop offset="0" stop-color="#ffffff" stop-opacity="0"/><stop offset="0.3" stop-color="#ffffff" stop-opacity="0.1"/><stop offset="0.5" stop-color="#ffffff" stop-opacity="0.3"/><stop offset="0.6" stop-color="#ffffff" stop-opacity="0.2"/><stop offset="1" stop-color="#ffffff" stop-opacity="0"/></linearGradient><linearGradient id="r1vq3ww7rim45" x1="0" y1="0" x2="1" y2="1"><stop offset="0" stop-color="#ffffff" stop-opacity="0.5"/><stop offset="0.5" stop-color="#ffffff" stop-opacity="0.1"/><stop offset="1" stop-color="#ffffff" stop-opacity="0"/></linearGradient><linearGradient id="r1vq3ww7sil16191e12" x1="0" y1="0" x2="1" y2="1"><stop offset="0" stop-color="#2f3236"/><stop offset="0.6" stop-color="#16191e"/><stop offset="1" stop-color="#15181d"/></linearGradient><linearGradient id="r1vq3ww7rim50" x1="0" y1="0" x2="1" y2="1"><stop offset="0" stop-color="#ffffff" stop-opacity="0.5"/><stop offset="0.5" stop-color="#ffffff" stop-opacity="0.1"/><stop offset="1" stop-color="#ffffff" stop-opacity="0"/></linearGradient><linearGradient id="r1vq3ww7mlrb7bdc5" x1="0" y1="0" x2="1" y2="1"><stop offset="0" stop-color="#cbcfd5"/><stop offset="0.3" stop-color="#bdc2ca"/><stop offset="0.5" stop-color="#c7ccd2"/><stop offset="0.8" stop-color="#adb3bb"/><stop offset="1" stop-color="#959aa2"/></linearGradient><radialGradient id="r1vq3ww7lg" cx="0.4" cy="0.4" r="0.6"><stop offset="0" stop-color="#2b3f5c"/><stop offset="0.5" stop-color="#0e1624"/><stop offset="1" stop-color="#03050a"/></radialGradient><radialGradient id="r1vq3ww7lc" cx="0.6" cy="0.6" r="0.5"><stop offset="0" stop-color="#7a5cc9" stop-opacity="0.6"/><stop offset="0.6" stop-color="#2a6d8f" stop-opacity="0.3"/><stop offset="1" stop-color="#0a0f18" stop-opacity="0"/></radialGradient><g id="r1vq3ww7lensb7bdc5"><circle r="50" fill="url(#r1vq3ww7mlrb7bdc5)" stroke="#55595e" stroke-width="2"/><circle r="41" fill="#0b0e13"/><circle r="36" fill="url(#r1vq3ww7lg)"/><circle r="24" fill="url(#r1vq3ww7lc)"/><circle r="13" fill="#05080d"/><ellipse cx="-13" cy="-14" rx="8" ry="5.5" fill="#ffffff" fill-opacity="0.6" transform="rotate(-35 -13 -14)"/><circle cx="12" cy="13" r="3" fill="#ffffff" fill-opacity="0.3"/></g><linearGradient id="r1vq3ww7mfrb7bdc5" x1="0" y1="0" x2="1" y2="1"><stop offset="0" stop-color="#cbcfd5"/><stop offset="0.3" stop-color="#bdc2ca"/><stop offset="0.5" stop-color="#c7ccd2"/><stop offset="0.8" stop-color="#adb3bb"/><stop offset="1" stop-color="#959aa2"/></linearGradient><radialGradient id="r1vq3ww7fl" cx="0.4" cy="0.4" r="0.7"><stop offset="0" stop-color="#fffdf2"/><stop offset="0.7" stop-color="#efe6c8"/><stop offset="1" stop-color="#cfc3a0"/></radialGradient></defs><rect width="400" height="400" fill="#ffffff"/><ellipse cx="200" cy="355" rx="68.3" ry="8" fill="url(#r1vq3ww7fl20)"/><path d="M150.2 34H249.8C268.9 34 274.2 39.3 274.2 58.5V323.5C274.2 342.7 268.9 348 249.8 348H150.2C131.1 348 125.8 342.7 125.8 323.5V58.5C125.8 39.3 131.1 34 150.2 34Z" fill="#0f172a" fill-opacity="0.1" transform="translate(6 8)"/><path d="M150.2 34H249.8C268.9 34 274.2 39.3 274.2 58.5V323.5C274.2 342.7 268.9 348 249.8 348H150.2C131.1 348 125.8 342.7 125.8 323.5V58.5C125.8 39.3 131.1 34 150.2 34Z" fill="#0f172a" fill-opacity="0.1" transform="translate(3.6 4.8)"/><path d="M150.2 34H249.8C268.9 34 274.2 39.3 274.2 58.5V323.5C274.2 342.7 268.9 348 249.8 348H150.2C131.1 348 125.8 342.7 125.8 323.5V58.5C125.8 39.3 131.1 34 150.2 34Z" fill="#0f172a" fill-opacity="0.1" transform="translate(1.8 2.4)"/><path d="M150.2 34H249.8C268.9 34 274.2 39.3 274.2 58.5V323.5C274.2 342.7 268.9 348 249.8 348H150.2C131.1 348 125.8 342.7 125.8 323.5V58.5C125.8 39.3 131.1 34 150.2 34Z" fill="#9ea8a5" transform="translate(1.7 3)"/><path d="M150.2 34H249.8C268.9 34 274.2 39.3 274.2 58.5V323.5C274.2 342.7 268.9 348 249.8 348H150.2C131.1 348 125.8 342.7 125.8 323.5V58.5C125.8 39.3 131.1 34 150.2 34Z" fill="url(#r1vq3ww7sbkd7e3dc12)" stroke="#8f9a9a" stroke-width="1.3"/><g clip-path="url(#r1vq3ww7ck)"><rect x="167.7" y="-288" width="94.2" height="832.4" fill="url(#r1vq3ww7shn)" opacity="0.2" transform="rotate(40 214.8 128.2)"/></g><path d="M150 34.8H250C268.4 34.8 273.4 39.8 273.4 58.2V323.8C273.4 342.2 268.4 347.2 250 347.2H150C131.6 347.2 126.6 342.2 126.6 323.8V58.2C126.6 39.8 131.6 34.8 150 34.8Z" fill="none" stroke="url(#r1vq3ww7rim45)" stroke-width="1"/><path d="M144.8 40.7H181.9C191.6 40.7 194.2 43.3 194.2 53V79.7C194.2 89.4 191.6 92 181.9 92H144.8C135.1 92 132.5 89.4 132.5 79.7V53C132.5 43.3 135.1 40.7 144.8 40.7Z" fill="#13161c" transform="translate(1.3 2.4)"/><path d="M144.8 40.7H181.9C191.6 40.7 194.2 43.3 194.2 53V79.7C194.2 89.4 191.6 92 181.9 92H144.8C135.1 92 132.5 89.4 132.5 79.7V53C132.5 43.3 135.1 40.7 144.8 40.7Z" fill="url(#r1vq3ww7sil16191e12)" stroke="#1d2025" stroke-width="1.3"/><path d="M144.8 40.7H181.9C191.6 40.7 194.2 43.3 194.2 53V79.7C194.2 89.4 191.6 92 181.9 92H144.8C135.1 92 132.5 89.4 132.5 79.7V53C132.5 43.3 135.1 40.7 144.8 40.7Z" fill="none" stroke="url(#r1vq3ww7rim50)" stroke-width="1"/><circle cx="147.2" cy="55.8" r="9.5" fill="#000000" fill-opacity="0.3"/><use href="#r1vq3ww7lensb7bdc5" transform="translate(146.4 54.6) scale(0.190)"/><circle cx="147.2" cy="79.2" r="9.5" fill="#000000" fill-opacity="0.3"/><use href="#r1vq3ww7lensb7bdc5" transform="translate(146.4 78.1) scale(0.190)"/><circle cx="172.8" cy="56.1" r="4.2" fill="url(#r1vq3ww7mfrb7bdc5)" stroke="#55595e" stroke-width="0.6"/><circle cx="172.8" cy="56.1" r="3.1" fill="url(#r1vq3ww7fl)"/><text x="392" y="392" text-anchor="end" font-family="system-ui,-apple-system,'Segoe UI',Roboto,Arial,sans-serif" font-size="10" fill="#9aa1ab">Ilustración</text></svg>