<svg xmlns="http://www.w3.org/2000/svg" viewBox="0 0 400 400" width="400" height="400" role="img"><defs><radialGradient id="r1u0df9ifl20" cx="0.5" cy="0.5" r="0.5"><stop offset="0" stop-color="#0f172a" stop-opacity="0.2"/><stop offset="0.6" stop-color="#0f172a" stop-opacity="0.1"/><stop offset="1" stop-color="#0f172a" stop-opacity="0"/></radialGradient><linearGradient id="r1u0df9isbkedeeec12" x1="0" y1="0" x2="1" y2="1"><stop offset="0" stop-color="#eff0ee"/><stop offset="0.6" stop-color="#edeeec"/><stop offset="1" stop-color="#d2d3d2"/></linearGradient><clipPath id="r1u0df9ick"><path d="M150.8 34H249.2C268 34 273.2 39.2 273.2 58V324C273.2 342.8 268 348 249.2 348H150.8C132 348 126.8 342.8 126.8 324V58C126.8 39.2 132 34 150.8 34Z"/></clipPath><linearGradient id="r1u0df9ishn" x1="0" y1="0" x2="1" y2="0"><stop offset="0" stop-color="#ffffff" stop-opacity="0"/><stop offset="0.3" stop-color="#ffffff" stop-opacity="0.1"/><stop offset="0.5" stop-color="#ffffff" stop-opacity="0.3"/><stop offset="0.6" stop-color="#ffffff" stop-opacity="0.2"/><stop offset="1" stop-color="#ffffff" stop-opacity="0"/></linearGradient><linearGradient id="r1u0df9irim45" x1="0" y1="0" x2="1" y2="1"><stop offset="0" stop-color="#ffffff" stop-opacity="0.5"/><stop offset="0.5" stop-color="#ffffff" stop-opacity="0.1"/><stop offset="1" stop-color="#ffffff" stop-opacity="0"/></linearGradient><linearGradient id="r1u0df9isil16191e12" x1="0" y1="0" x2="1" y2="1"><stop offset="0" stop-color="#2f3236"/><stop offset="0.6" stop-color="#16191e"/><stop offset="1" stop-color="#15181d"/></linearGradient><linearGradient id="r1u0df9irim50" x1="0" y1="0" x2="1" y2="1"><stop offset="0" stop-color="#ffffff" stop-opacity="0.5"/><stop offset="0.5" stop-color="#ffffff" stop-opacity="0.1"/><stop offset="1" stop-color="#ffffff" stop-opacity="0"/></linearGradient><linearGradient id="r1u0df9imlrb7bdc5" x1="0" y1="0" x2="1" y2="1"><stop offset="0" stop-color="#cbcfd5"/><stop offset="0.3" stop-color="#bdc2ca"/><stop offset="0.5" stop-color="#c7ccd2"/><stop offset="0.8" stop-color="#adb3bb"/><stop offset="1" stop-color="#959aa2"/></linearGradient><radialGradient id="r1u0df9ilg" cx="0.4" cy="0.4" r="0.6"><stop offset="0" stop-color="#2b3f5c"/><stop offset="0.5" stop-color="#0e1624"/><stop offset="1" stop-color="#03050a"/></radialGradient><radialGradient id="r1u0df9ilc" cx="0.6" cy="0.6" r="0.5"><stop offset="0" stop-color="#7a5cc9" stop-opacity="0.6"/><stop offset="0.6" stop-color="#2a6d8f" stop-opacity="0.3"/><stop offset="1" stop-color="#0a0f18" stop-opacity="0"/></radialGradient><g id="r1u0df9ilensb7bdc5"><circle r="50" fill="url(#r1u0df9imlrb7bdc5)" stroke="#55595e" stroke-width="2"/><circle r="41" fill="#0b0e13"/><circle r="36" fill="url(#r1u0df9ilg)"/><circle r="24" fill="url(#r1u0df9ilc)"/><circle r="13" fill="#05080d"/><ellipse cx="-13" cy="-14" rx="8" ry="5.5" fill="#ffffff" fill-opacity="0.6" transform="rotate(-35 -13 -14)"/><circle cx="12" cy="13" r="3" fill="#ffffff" fill-opacity="0.3"/></g><linearGradient id="r1u0df9imfrb7bdc5" x1="0" y1="0" x2="1" y2="1"><stop offset="0" stop-color="#cbcfd5"/><stop offset="0.3" stop-color="#bdc2ca"/><stop offset="0.5" stop-color="#c7ccd2"/><stop offset="0.8" stop-color="#adb3bb"/><stop offset="1" stop-color="#959aa2"/></linearGradient><radialGradient id="r1u0df9ifl" cx="0.4" cy="0.4" r="0.7"><stop offset="0" stop-color="#fffdf2"/><stop offset="0.7" stop-color="#efe6c8"/><stop offset="1" stop-color="#cfc3a0"/></radialGradient></defs><rect width="400" height="400" fill="#ffffff"/><ellipse cx="200" cy="355" rx="67.3" ry="8" fill="url(#r1u0df9ifl20)"/><path d="M150.8 34H249.2C268 34 273.2 39.2 273.2 58V324C273.2 342.8 268 348 249.2 348H150.8C132 348 126.8 342.8 126.8 324V58C126.8 39.2 132 34 150.8 34Z" fill="#0f172a" fill-opacity="0.1" transform="translate(6 8)"/><path d="M150.8 34H249.2C268 34 273.2 39.2 273.2 58V324C273.2 342.8 268 348 249.2 348H150.8C132 348 126.8 342.8 126.8 324V58C126.8 39.2 132 34 150.8 34Z" fill="#0f172a" fill-opacity="0.1" transform="translate(3.6 4.8)"/><path d="M150.8 34H249.2C268 34 273.2 39.2 273.2 58V324C273.2 342.8 268 348 249.2 348H150.8C132 348 126.8 342.8 126.8 324V58C126.8 39.2 132 34 150.8 34Z" fill="#0f172a" fill-opacity="0.1" transform="translate(1.8 2.4)"/><path d="M150.8 34H249.2C268 34 273.2 39.2 273.2 58V324C273.2 342.8 268 348 249.2 348H150.8C132 348 126.8 342.8 126.8 324V58C126.8 39.2 132 34 150.8 34Z" fill="#aeb0b0" transform="translate(1.7 3)"/><path d="M150.8 34H249.2C268 34 273.2 39.2 273.2 58V324C273.2 342.8 268 348 249.2 348H150.8C132 348 126.8 342.8 126.8 324V58C126.8 39.2 132 34 150.8 34Z" fill="url(#r1u0df9isbkedeeec12)" stroke="#9ca0a4" stroke-width="1.3"/><g clip-path="url(#r1u0df9ick)"><rect x="167.5" y="-286.2" width="94.2" height="828.7" fill="url(#r1u0df9ishn)" opacity="0.2" transform="rotate(40 214.6 128.2)"/></g><path d="M150.6 34.8H249.4C267.5 34.8 272.4 39.8 272.4 57.8V324.2C272.4 342.2 267.5 347.2 249.4 347.2H150.6C132.5 347.2 127.6 342.2 127.6 324.2V57.8C127.6 39.8 132.5 34.8 150.6 34.8Z" fill="none" stroke="url(#r1u0df9irim45)" stroke-width="1"/><path d="M149.8 45H149.8C156.4 45 161.8 50.4 161.8 57V103.3C161.8 109.9 156.4 115.3 149.8 115.3H149.8C143.2 115.3 137.8 109.9 137.8 103.3V57C137.8 50.4 143.2 45 149.8 45Z" fill="#13161c" transform="translate(1.3 2.4)"/><path d="M149.8 45H149.8C156.4 45 161.8 50.4 161.8 57V103.3C161.8 109.9 156.4 115.3 149.8 115.3H149.8C143.2 115.3 137.8 109.9 137.8 103.3V57C137.8 50.4 143.2 45 149.8 45Z" fill="url(#r1u0df9isil16191e12)" stroke="#1d2025" stroke-width="1.3"/><path d="M149.8 45H149.8C156.4 45 161.8 50.4 161.8 57V103.3C161.8 109.9 156.4 115.3 149.8 115.3H149.8C143.2 115.3 137.8 109.9 137.8 103.3V57C137.8 50.4 143.2 45 149.8 45Z" fill="none" stroke="url(#r1u0df9irim50)" stroke-width="1"/><circle cx="150.5" cy="58.1" r="9.4" fill="#000000" fill-opacity="0.3"/><use href="#r1u0df9ilensb7bdc5" transform="translate(149.8 57) scale(0.187)"/><circle cx="150.5" cy="81.2" r="9.4" fill="#000000" fill-opacity="0.3"/><use href="#r1u0df9ilensb7bdc5" transform="translate(149.8 80.1) scale(0.187)"/><circle cx="150.5" cy="104.4" r="9.4" fill="#000000" fill-opacity="0.3"/><use href="#r1u0df9ilensb7bdc5" transform="translate(149.8 103.3) scale(0.187)"/><circle cx="170.6" cy="57" r="4.1" fill="url(#r1u0df9imfrb7bdc5)" stroke="#55595e" stroke-width="0.6"/><circle cx="170.6" cy="57" r="3" fill="url(#r1u0df9ifl)"/><text x="392" y="392" text-anchor="end" font-family="system-ui,-apple-system,'Segoe UI',Roboto,Arial,sans-serif" font-size="10" fill="#9aa1ab">Ilustración</text></svg>