<svg xmlns="http://www.w3.org/2000/svg" viewBox="0 0 400 400" width="400" height="400" role="img"><defs><radialGradient id="rsjawkefl20" cx="0.5" cy="0.5" r="0.5"><stop offset="0" stop-color="#0f172a" stop-opacity="0.2"/><stop offset="0.6" stop-color="#0f172a" stop-opacity="0.1"/><stop offset="1" stop-color="#0f172a" stop-opacity="0"/></radialGradient><linearGradient id="rsjawkesbk9a9a9c12" x1="0" y1="0" x2="1" y2="1"><stop offset="0" stop-color="#a5a5a7"/><stop offset="0.6" stop-color="#9a9a9c"/><stop offset="1" stop-color="#89898c"/></linearGradient><clipPath id="rsjawkeck"><path d="M150.8 34H249.2C268.6 34 273.9 39.3 273.9 58.8V323.2C273.9 342.7 268.6 348 249.2 348H150.8C131.4 348 126.1 342.7 126.1 323.2V58.8C126.1 39.3 131.4 34 150.8 34Z"/></clipPath><linearGradient id="rsjawkeshn" x1="0" y1="0" x2="1" y2="0"><stop offset="0" stop-color="#ffffff" stop-opacity="0"/><stop offset="0.3" stop-color="#ffffff" stop-opacity="0.1"/><stop offset="0.5" stop-color="#ffffff" stop-opacity="0.3"/><stop offset="0.6" stop-color="#ffffff" stop-opacity="0.2"/><stop offset="1" stop-color="#ffffff" stop-opacity="0"/></linearGradient><linearGradient id="rsjawkerim45" x1="0" y1="0" x2="1" y2="1"><stop offset="0" stop-color="#ffffff" stop-opacity="0.5"/><stop offset="0.5" stop-color="#ffffff" stop-opacity="0.1"/><stop offset="1" stop-color="#ffffff" stop-opacity="0"/></linearGradient><linearGradient id="rsjawkemlr9a9ea3" x1="0" y1="0" x2="1" y2="1"><stop offset="0" stop-color="#b6b9bd"/><stop offset="0.3" stop-color="#a2a6aa"/><stop offset="0.5" stop-color="#b0b3b7"/><stop offset="0.8" stop-color="#91959b"/><stop offset="1" stop-color="#7d8287"/></linearGradient><radialGradient id="rsjawkelg" cx="0.4" cy="0.4" r="0.6"><stop offset="0" stop-color="#2b3f5c"/><stop offset="0.5" stop-color="#0e1624"/><stop offset="1" stop-color="#03050a"/></radialGradient><radialGradient id="rsjawkelc" cx="0.6" cy="0.6" r="0.5"><stop offset="0" stop-color="#7a5cc9" stop-opacity="0.6"/><stop offset="0.6" stop-color="#2a6d8f" stop-opacity="0.3"/><stop offset="1" stop-color="#0a0f18" stop-opacity="0"/></radialGradient><g id="rsjawkelens9a9ea3"><circle r="50" fill="url(#rsjawkemlr9a9ea3)" stroke="#484b4f" stroke-width="2"/><circle r="41" fill="#0b0e13"/><circle r="36" fill="url(#rsjawkelg)"/><circle r="24" fill="url(#rsjawkelc)"/><circle r="13" fill="#05080d"/><ellipse cx="-13" cy="-14" rx="8" ry="5.5" fill="#ffffff" fill-opacity="0.6" transform="rotate(-35 -13 -14)"/><circle cx="12" cy="13" r="3" fill="#ffffff" fill-opacity="0.3"/></g><linearGradient id="rsjawkemfr9a9ea3" x1="0" y1="0" x2="1" y2="1"><stop offset="0" stop-color="#b6b9bd"/><stop offset="0.3" stop-color="#a2a6aa"/><stop offset="0.5" stop-color="#b0b3b7"/><stop offset="0.8" stop-color="#91959b"/><stop offset="1" stop-color="#7d8287"/></linearGradient><radialGradient id="rsjawkefl" cx="0.4" cy="0.4" r="0.7"><stop offset="0" stop-color="#fffdf2"/><stop offset="0.7" stop-color="#efe6c8"/><stop offset="1" stop-color="#cfc3a0"/></radialGradient></defs><rect width="400" height="400" fill="#ffffff"/><ellipse cx="200" cy="355" rx="68" ry="8" fill="url(#rsjawkefl20)"/><path d="M150.8 34H249.2C268.6 34 273.9 39.3 273.9 58.8V323.2C273.9 342.7 268.6 348 249.2 348H150.8C131.4 348 126.1 342.7 126.1 323.2V58.8C126.1 39.3 131.4 34 150.8 34Z" fill="#0f172a" fill-opacity="0.1" transform="translate(6 8)"/><path d="M150.8 34H249.2C268.6 34 273.9 39.3 273.9 58.8V323.2C273.9 342.7 268.6 348 249.2 348H150.8C131.4 348 126.1 342.7 126.1 323.2V58.8C126.1 39.3 131.4 34 150.8 34Z" fill="#0f172a" fill-opacity="0.1" transform="translate(3.6 4.8)"/><path d="M150.8 34H249.2C268.6 34 273.9 39.3 273.9 58.8V323.2C273.9 342.7 268.6 348 249.2 348H150.8C131.4 348 126.1 342.7 126.1 323.2V58.8C126.1 39.3 131.4 34 150.8 34Z" fill="#0f172a" fill-opacity="0.1" transform="translate(1.8 2.4)"/><path d="M150.8 34H249.2C268.6 34 273.9 39.3 273.9 58.8V323.2C273.9 342.7 268.6 348 249.2 348H150.8C131.4 348 126.1 342.7 126.1 323.2V58.8C126.1 39.3 131.4 34 150.8 34Z" fill="#727377" transform="translate(1.7 3)"/><path d="M150.8 34H249.2C268.6 34 273.9 39.3 273.9 58.8V323.2C273.9 342.7 268.6 348 249.2 348H150.8C131.4 348 126.1 342.7 126.1 323.2V58.8C126.1 39.3 131.4 34 150.8 34Z" fill="url(#rsjawkesbk9a9a9c12)" stroke="#48494c" stroke-width="1.3"/><g clip-path="url(#rsjawkeck)"><rect x="167.7" y="-287.5" width="94.2" height="831.4" fill="url(#rsjawkeshn)" opacity="0.3" transform="rotate(40 214.8 128.2)"/></g><path d="M150.6 34.8H249.4C268 34.8 273.1 39.9 273.1 58.5V323.5C273.1 342.1 268 347.2 249.4 347.2H150.6C132 347.2 126.9 342.1 126.9 323.5V58.5C126.9 39.9 132 34.8 150.6 34.8Z" fill="none" stroke="url(#rsjawkerim45)" stroke-width="1"/><circle cx="147.5" cy="55.9" r="9.6" fill="#000000" fill-opacity="0.3"/><use href="#rsjawkelens9a9ea3" transform="translate(146.8 54.7) scale(0.192)"/><circle cx="171.2" cy="55.9" r="9.6" fill="#000000" fill-opacity="0.3"/><use href="#rsjawkelens9a9ea3" transform="translate(170.4 54.7) scale(0.192)"/><circle cx="147.5" cy="79.5" r="9.6" fill="#000000" fill-opacity="0.3"/><use href="#rsjawkelens9a9ea3" transform="translate(146.8 78.4) scale(0.192)"/><circle cx="171.2" cy="79.5" r="9.6" fill="#000000" fill-opacity="0.3"/><use href="#rsjawkelens9a9ea3" transform="translate(170.4 78.4) scale(0.192)"/><circle cx="188.9" cy="54.7" r="4.1" fill="url(#rsjawkemfr9a9ea3)" stroke="#484b4f" stroke-width="0.6"/><circle cx="188.9" cy="54.7" r="3.1" fill="url(#rsjawkefl)"/><text x="392" y="392" text-anchor="end" font-family="system-ui,-apple-system,'Segoe UI',Roboto,Arial,sans-serif" font-size="10" fill="#9aa1ab">Ilustración</text></svg>