<svg xmlns="http://www.w3.org/2000/svg" viewBox="0 0 400 400" width="400" height="400" role="img"><defs><radialGradient id="rbbnb6vfl20" cx="0.5" cy="0.5" r="0.5"><stop offset="0" stop-color="#0f172a" stop-opacity="0.2"/><stop offset="0.6" stop-color="#0f172a" stop-opacity="0.1"/><stop offset="1" stop-color="#0f172a" stop-opacity="0"/></radialGradient><linearGradient id="rbbnb6vsbke7b9a812" x1="0" y1="0" x2="1" y2="1"><stop offset="0" stop-color="#eac1b1"/><stop offset="0.6" stop-color="#e7b9a8"/><stop offset="1" stop-color="#cda597"/></linearGradient><clipPath id="rbbnb6vck"><path d="M148.6 34H251.4C270.5 34 275.7 39.2 275.7 58.3V323.7C275.7 342.8 270.5 348 251.4 348H148.6C129.5 348 124.3 342.8 124.3 323.7V58.3C124.3 39.2 129.5 34 148.6 34Z"/></clipPath><linearGradient id="rbbnb6vshn" x1="0" y1="0" x2="1" y2="0"><stop offset="0" stop-color="#ffffff" stop-opacity="0"/><stop offset="0.3" stop-color="#ffffff" stop-opacity="0.1"/><stop offset="0.5" stop-color="#ffffff" stop-opacity="0.3"/><stop offset="0.6" stop-color="#ffffff" stop-opacity="0.2"/><stop offset="1" stop-color="#ffffff" stop-opacity="0"/></linearGradient><linearGradient id="rbbnb6vrim45" x1="0" y1="0" x2="1" y2="1"><stop offset="0" stop-color="#ffffff" stop-opacity="0.5"/><stop offset="0.5" stop-color="#ffffff" stop-opacity="0.1"/><stop offset="1" stop-color="#ffffff" stop-opacity="0"/></linearGradient><linearGradient id="rbbnb6vsil16191e12" x1="0" y1="0" x2="1" y2="1"><stop offset="0" stop-color="#2f3236"/><stop offset="0.6" stop-color="#16191e"/><stop offset="1" stop-color="#15181d"/></linearGradient><linearGradient id="rbbnb6vrim50" x1="0" y1="0" x2="1" y2="1"><stop offset="0" stop-color="#ffffff" stop-opacity="0.5"/><stop offset="0.5" stop-color="#ffffff" stop-opacity="0.1"/><stop offset="1" stop-color="#ffffff" stop-opacity="0"/></linearGradient><linearGradient id="rbbnb6vmlrb7bdc5" x1="0" y1="0" x2="1" y2="1"><stop offset="0" stop-color="#cbcfd5"/><stop offset="0.3" stop-color="#bdc2ca"/><stop offset="0.5" stop-color="#c7ccd2"/><stop offset="0.8" stop-color="#adb3bb"/><stop offset="1" stop-color="#959aa2"/></linearGradient><radialGradient id="rbbnb6vlg" cx="0.4" cy="0.4" r="0.6"><stop offset="0" stop-color="#2b3f5c"/><stop offset="0.5" stop-color="#0e1624"/><stop offset="1" stop-color="#03050a"/></radialGradient><radialGradient id="rbbnb6vlc" cx="0.6" cy="0.6" r="0.5"><stop offset="0" stop-color="#7a5cc9" stop-opacity="0.6"/><stop offset="0.6" stop-color="#2a6d8f" stop-opacity="0.3"/><stop offset="1" stop-color="#0a0f18" stop-opacity="0"/></radialGradient><g id="rbbnb6vlensb7bdc5"><circle r="50" fill="url(#rbbnb6vmlrb7bdc5)" stroke="#55595e" stroke-width="2"/><circle r="41" fill="#0b0e13"/><circle r="36" fill="url(#rbbnb6vlg)"/><circle r="24" fill="url(#rbbnb6vlc)"/><circle r="13" fill="#05080d"/><ellipse cx="-13" cy="-14" rx="8" ry="5.5" fill="#ffffff" fill-opacity="0.6" transform="rotate(-35 -13 -14)"/><circle cx="12" cy="13" r="3" fill="#ffffff" fill-opacity="0.3"/></g><linearGradient id="rbbnb6vmfrb7bdc5" x1="0" y1="0" x2="1" y2="1"><stop offset="0" stop-color="#cbcfd5"/><stop offset="0.3" stop-color="#bdc2ca"/><stop offset="0.5" stop-color="#c7ccd2"/><stop offset="0.8" stop-color="#adb3bb"/><stop offset="1" stop-color="#959aa2"/></linearGradient><radialGradient id="rbbnb6vfl" cx="0.4" cy="0.4" r="0.7"><stop offset="0" stop-color="#fffdf2"/><stop offset="0.7" stop-color="#efe6c8"/><stop offset="1" stop-color="#cfc3a0"/></radialGradient></defs><rect width="400" height="400" fill="#ffffff"/><ellipse cx="200" cy="355" rx="69.7" ry="8" fill="url(#rbbnb6vfl20)"/><path d="M148.6 34H251.4C270.5 34 275.7 39.2 275.7 58.3V323.7C275.7 342.8 270.5 348 251.4 348H148.6C129.5 348 124.3 342.8 124.3 323.7V58.3C124.3 39.2 129.5 34 148.6 34Z" fill="#0f172a" fill-opacity="0.1" transform="translate(6 8)"/><path d="M148.6 34H251.4C270.5 34 275.7 39.2 275.7 58.3V323.7C275.7 342.8 270.5 348 251.4 348H148.6C129.5 348 124.3 342.8 124.3 323.7V58.3C124.3 39.2 129.5 34 148.6 34Z" fill="#0f172a" fill-opacity="0.1" transform="translate(3.6 4.8)"/><path d="M148.6 34H251.4C270.5 34 275.7 39.2 275.7 58.3V323.7C275.7 342.8 270.5 348 251.4 348H148.6C129.5 348 124.3 342.8 124.3 323.7V58.3C124.3 39.2 129.5 34 148.6 34Z" fill="#0f172a" fill-opacity="0.1" transform="translate(1.8 2.4)"/><path d="M148.6 34H251.4C270.5 34 275.7 39.2 275.7 58.3V323.7C275.7 342.8 270.5 348 251.4 348H148.6C129.5 348 124.3 342.8 124.3 323.7V58.3C124.3 39.2 129.5 34 148.6 34Z" fill="#a98a7f" transform="translate(1.7 3)"/><path d="M148.6 34H251.4C270.5 34 275.7 39.2 275.7 58.3V323.7C275.7 342.8 270.5 348 251.4 348H148.6C129.5 348 124.3 342.8 124.3 323.7V58.3C124.3 39.2 129.5 34 148.6 34Z" fill="url(#rbbnb6vsbke7b9a812)" stroke="#6b5751" stroke-width="1.3"/><g clip-path="url(#rbbnb6vck)"><rect x="168" y="-290.7" width="94.2" height="837.8" fill="url(#rbbnb6vshn)" opacity="0.3" transform="rotate(40 215.1 128.2)"/></g><path d="M148.4 34.8H251.6C269.9 34.8 274.9 39.8 274.9 58.1V323.9C274.9 342.2 269.9 347.2 251.6 347.2H148.4C130.1 347.2 125.1 342.2 125.1 323.9V58.1C125.1 39.8 130.1 34.8 148.4 34.8Z" fill="none" stroke="url(#rbbnb6vrim45)" stroke-width="1"/><path d="M157.1 45.4H177.7C194.6 45.4 199.2 50 199.2 66.9V87.5C199.2 104.3 194.6 109 177.7 109H157.1C140.3 109 135.6 104.3 135.6 87.5V66.9C135.6 50 140.3 45.4 157.1 45.4Z" fill="#13161c" transform="translate(1.3 2.4)"/><path d="M157.1 45.4H177.7C194.6 45.4 199.2 50 199.2 66.9V87.5C199.2 104.3 194.6 109 177.7 109H157.1C140.3 109 135.6 104.3 135.6 87.5V66.9C135.6 50 140.3 45.4 157.1 45.4Z" fill="url(#rbbnb6vsil16191e12)" stroke="#1d2025" stroke-width="1.3"/><path d="M157.1 45.4H177.7C194.6 45.4 199.2 50 199.2 66.9V87.5C199.2 104.3 194.6 109 177.7 109H157.1C140.3 109 135.6 104.3 135.6 87.5V66.9C135.6 50 140.3 45.4 157.1 45.4Z" fill="none" stroke="url(#rbbnb6vrim50)" stroke-width="1"/><circle cx="154.4" cy="64.6" r="12.1" fill="#000000" fill-opacity="0.3"/><use href="#rbbnb6vlensb7bdc5" transform="translate(153.4 63.2) scale(0.242)"/><circle cx="182.4" cy="64.6" r="12.1" fill="#000000" fill-opacity="0.3"/><use href="#rbbnb6vlensb7bdc5" transform="translate(181.4 63.2) scale(0.242)"/><circle cx="154.4" cy="92.6" r="12.1" fill="#000000" fill-opacity="0.3"/><use href="#rbbnb6vlensb7bdc5" transform="translate(153.4 91.2) scale(0.242)"/><circle cx="181.4" cy="91.2" r="4.8" fill="url(#rbbnb6vmfrb7bdc5)" stroke="#55595e" stroke-width="0.6"/><circle cx="181.4" cy="91.2" r="3.5" fill="url(#rbbnb6vfl)"/><text x="392" y="392" text-anchor="end" font-family="system-ui,-apple-system,'Segoe UI',Roboto,Arial,sans-serif" font-size="10" fill="#9aa1ab">Ilustración</text></svg>